<?xml version="1.0" encoding="utf-8"?>
<!-- Generator: Adobe Illustrator 19.0.0, SVG Export Plug-In . SVG Version: 6.00 Build 0)  -->
<svg version="1.1" id="Layer_1" xmlns="http://www.w3.org/2000/svg" xmlns:xlink="http://www.w3.org/1999/xlink" x="0px" y="0px"
	 viewBox="279 20 605 244" style="enable-background:new 279 20 605 244;" xml:space="preserve">
<style type="text/css">
	.st0{fill:url(#XMLID_9_);stroke:#FFFFFF;stroke-miterlimit:10;}
	.st1{fill:url(#XMLID_10_);stroke:#FFFFFF;stroke-miterlimit:10;}
	.st2{opacity:0.3;fill:none;stroke:#FFFFFF;stroke-width:3;stroke-miterlimit:10;enable-background:new    ;}
	.st3{fill:url(#XMLID_11_);}
	.st4{fill:url(#XMLID_12_);}
	.st5{opacity:0.5;fill:#58595B;enable-background:new    ;}
	.st6{font-family:'BerlinSansFB-Reg';}
	.st7{font-size:306.0761px;}
</style>
<linearGradient id="XMLID_9_" gradientUnits="userSpaceOnUse" x1="414.2569" y1="-284.2142" x2="331.9431" y2="-426.7858" gradientTransform="matrix(1 0 0 1 0 502)">
	<stop  offset="0" style="stop-color:#103F66"/>
	<stop  offset="1" style="stop-color:#014667"/>
	<stop  offset="1" style="stop-color:#075567"/>
	<stop  offset="1" style="stop-color:#036165"/>
	<stop  offset="1" style="stop-color:#036A61"/>
	<stop  offset="1" style="stop-color:#01715F"/>
	<stop  offset="1" style="stop-color:#02765E"/>
	<stop  offset="1" style="stop-color:#01785D"/>
</linearGradient>
<circle id="XMLID_2_" class="st0" cx="373.1" cy="146.5" r="82.3"/>
<linearGradient id="XMLID_10_" gradientUnits="userSpaceOnUse" x1="831.5069" y1="-283.7812" x2="748.6931" y2="-427.2188" gradientTransform="matrix(1 0 0 1 0 502)">
	<stop  offset="0" style="stop-color:#01715F"/>
	<stop  offset="0" style="stop-color:#103F66"/>
	<stop  offset="0" style="stop-color:#014667"/>
	<stop  offset="0" style="stop-color:#075567"/>
	<stop  offset="0" style="stop-color:#036165"/>
	<stop  offset="1" style="stop-color:#036A61"/>
</linearGradient>
<circle id="XMLID_1_" class="st1" cx="790.1" cy="146.5" r="82.8"/>
<line id="XMLID_4_" class="st2" x1="314.4" y1="204.1" x2="429.5" y2="86.6"/>
<line id="XMLID_5_" class="st2" x1="733.4" y1="86.2" x2="849.3" y2="204.5"/>
<linearGradient id="XMLID_11_" gradientUnits="userSpaceOnUse" x1="501.5" y1="26.1" x2="648.5" y2="26.1" gradientTransform="matrix(1 0 0 -1 0 150)">
	<stop  offset="0.4926" style="stop-color:#01715F"/>
	<stop  offset="0.4926" style="stop-color:#5ABA47"/>
</linearGradient>
<path id="XMLID_6_" class="st3" d="M629.4,143H520.6c-10.5,0-19.1-8.6-19.1-19.1l0,0c0-10.5,8.6-19.1,19.1-19.1h108.8
	c10.5,0,19.1,8.6,19.1,19.1l0,0C648.5,134.4,639.9,143,629.4,143z"/>
<linearGradient id="XMLID_12_" gradientUnits="userSpaceOnUse" x1="979.2449" y1="-430.7141" x2="1126.245" y2="-430.7141" gradientTransform="matrix(-1 -6.320425e-004 -6.320425e-004 1 1627.4728 617.8295)">
	<stop  offset="0.4926" style="stop-color:#01715F"/>
	<stop  offset="0.4926" style="stop-color:#5ABA47"/>
</linearGradient>
<path id="XMLID_7_" class="st4" d="M520.6,167.3l108.8,0.1c10.5,0,19.1,8.6,19.1,19.1l0,0c0,10.5-8.6,19.1-19.1,19.1l-108.8-0.1
	c-10.5,0-19.1-8.6-19.1-19.1l0,0C501.5,175.8,510.1,167.3,520.6,167.3z"/>
<text id="XMLID_3_" transform="matrix(1 0 0 1 514.8681 245.9688)" class="st5 st6 st7">?</text>
</svg>
