<?xml version="1.0" encoding="utf-8"?>
<!-- Generator: Adobe Illustrator 19.0.0, SVG Export Plug-In . SVG Version: 6.00 Build 0)  -->
<svg version="1.1" id="Layer_1" xmlns="http://www.w3.org/2000/svg" xmlns:xlink="http://www.w3.org/1999/xlink" x="0px" y="0px"
	 viewBox="369 -95 422 320" style="enable-background:new 369 -95 422 320;" xml:space="preserve">
<style type="text/css">
	.st0{fill:#17727E;}
	.st1{fill:#F1F2F2;}
	.st2{fill:none;stroke:#17727E;stroke-width:15;stroke-miterlimit:10;}
	.st3{fill:url(#XMLID_16_);stroke:#13955A;stroke-width:2;stroke-miterlimit:10;}
	.st4{fill:#13955A;stroke:#13955A;stroke-width:2;stroke-miterlimit:10;}
	.st5{font-family:'BerlinSansFBDemi-Bold';}
	.st6{font-size:48px;}
	.st7{fill:url(#SVGID_1_);stroke:#FFFFFF;stroke-miterlimit:10;}
	.st8{fill:none;stroke:#FFFFFF;stroke-miterlimit:10;}
	.st9{fill:url(#XMLID_17_);stroke:#FFFFFF;stroke-miterlimit:10;}
	.st10{fill:url(#SVGID_2_);}
</style>
<path id="XMLID_1_" class="st0" d="M622.2,32.4H512.6c-4.8,0-8.8-3.9-8.8-8.8V6.8c0-4.8,3.9-8.8,8.8-8.8h109.6
	c4.8,0,8.8,3.9,8.8,8.8v16.8C630.9,28.5,627,32.4,622.2,32.4z"/>
<path id="XMLID_3_" d="M523.1,41.8"/>
<path id="XMLID_5_" class="st0" d="M523.1,44.4L523.1,44.4c0-5.3,4.3-9.7,9.7-9.7H604c5.3,0,9.7,4.3,9.7,9.7v0.3
	c0,2.9,1.3,5.7,3.6,7.5l30,24.1c2.3,1.8,3.6,4.6,3.6,7.5v102.5c0,5.3-4.3,9.7-9.7,9.7H495.6c-5.3,0-9.7-4.3-9.7-9.7v-105
	c0-3.1,1.5-6,4-7.8l29.2-21.2C521.7,50.4,523.1,47.5,523.1,44.4z"/>
<path id="XMLID_7_" class="st1" d="M622.1,173.1H515.8c-6.6,0-12-5.4-12-12v-43.9c0-6.6,5.4-12,12-12H622c6.6,0,12,5.4,12,12v43.9
	C634.1,167.7,628.7,173.1,622.1,173.1z"/>
<line id="XMLID_8_" class="st2" x1="567.4" y1="115.4" x2="567.4" y2="162.9"/>
<line id="XMLID_10_" class="st2" x1="543.6" y1="139.1" x2="591.1" y2="139.2"/>
<linearGradient id="XMLID_16_" gradientUnits="userSpaceOnUse" x1="781.2932" y1="-316.9626" x2="851.1564" y2="-316.9626" gradientTransform="matrix(0.7641 -0.6451 0.9633 1.141 332.5182 1072.2518)">
	<stop  offset="0.4926" style="stop-color:#FFFFFF"/>
	<stop  offset="0.4926" style="stop-color:#13955A"/>
</linearGradient>
<path id="XMLID_6_" class="st3" d="M679.4,177.7l-39.5,33.4c-3.8,3.2-10.9,1.2-15.7-4.5l0,0c-4.8-5.7-5.6-13-1.8-16.2L662,157
	c3.8-3.2,10.9-1.2,15.7,4.5l0,0C682.4,167.2,683.2,174.5,679.4,177.7z"/>
<path id="XMLID_9_" class="st4" d="M724.4,153.9H774c4.4,0,8-3.6,8-8v-41.6c0-4.4-3.6-8-8-8h-49.6c-4.4,0-8,3.6-8,8v41.6
	C716.4,150.3,720,153.9,724.4,153.9z"/>
<polygon id="XMLID_12_" class="st4" points="716.4,125.1 688.6,153.1 716.4,145.9 "/>
<text id="XMLID_11_" transform="matrix(1 0 0 1 741.6348 140.1895)" class="st1 st5 st6">i</text>
<path id="XMLID_13_" class="st0" d="M542.5-28.1h17.4h32.2c4.4,0,8-3.6,8-8v-41.6c0-4.4-3.6-8-8-8h-49.6c-4.4,0-8,3.6-8,8v41.6
	C534.5-31.7,538.2-28.1,542.5-28.1z"/>
<text id="XMLID_14_" transform="matrix(1 0 0 1 559.9007 -41.8104)" class="st1 st5 st6">i</text>
<polyline class="st0" points="565.9,-10 577,-28.1 556.9,-29.1 "/>
<linearGradient id="SVGID_1_" gradientUnits="userSpaceOnUse" x1="447.15" y1="183.45" x2="500.25" y2="183.45">
	<stop  offset="0" style="stop-color:#135799"/>
	<stop  offset="1" style="stop-color:#166E83"/>
</linearGradient>
<ellipse class="st7" cx="473.7" cy="183.4" rx="26.5" ry="26.7"/>
<line class="st8" x1="490.6" y1="162.9" x2="458.4" y2="205.2"/>
<linearGradient id="XMLID_17_" gradientUnits="userSpaceOnUse" x1="377.55" y1="107.9896" x2="443.15" y2="107.9896">
	<stop  offset="0" style="stop-color:#135799"/>
	<stop  offset="1" style="stop-color:#166E83"/>
</linearGradient>
<path id="XMLID_4_" class="st9" d="M385.5,136.8h17.4h32.2c4.4,0,8-3.6,8-8V87.2c0-4.4-3.6-8-8-8h-49.6c-4.4,0-8,3.6-8,8v41.6
	C377.5,133.2,381.2,136.8,385.5,136.8z"/>
<text id="XMLID_2_" transform="matrix(1 0 0 1 402.9007 123.0792)" class="st1 st5 st6">i</text>
<linearGradient id="SVGID_2_" gradientUnits="userSpaceOnUse" x1="410.35" y1="147.3448" x2="443.15" y2="147.3448">
	<stop  offset="0" style="stop-color:#135799"/>
	<stop  offset="1" style="stop-color:#166E83"/>
</linearGradient>
<polygon class="st10" points="410.4,132.8 443.2,161.9 431,135.8 "/>
</svg>
